<?xml version="1.0" encoding="utf-8"?>
<!-- Generator: Adobe Illustrator 16.0.0, SVG Export Plug-In . SVG Version: 6.00 Build 0)  -->
<!DOCTYPE svg PUBLIC "-//W3C//DTD SVG 1.1//EN" "http://www.w3.org/Graphics/SVG/1.1/DTD/svg11.dtd">
<svg version="1.1" id="Layer_1" xmlns="http://www.w3.org/2000/svg" xmlns:xlink="http://www.w3.org/1999/xlink" x="0px" y="0px"
	 width="612px" height="792px" viewBox="0 0 612 792" enable-background="new 0 0 612 792" xml:space="preserve">
<g>
	<path fill-rule="evenodd" clip-rule="evenodd" fill="none" d="M-693.88,286.96c1130.561,0,2261.12,0,3391.681,0
		c0,73.28,0,146.56,0,219.84c-1593.281,0-3186.561,0-4779.841,0c0-73.28,0-146.56,0-219.84c452.8,0,905.6,0,1358.4,0
		c-0.179,1.577-0.515,3.152-0.515,4.729c-0.027,53.743-0.024,107.486-0.014,161.229c0.001,1.563,0.133,3.125,0.222,5.079
		c10.214,0.15,20.025,0.147,30.25,0.02c0-2.411,0-4.142,0-5.872c0.002-14.715-0.065-29.431,0.04-44.146
		c0.045-6.394,0.204-12.805,0.743-19.172c0.767-9.053,3.948-17.131,11.116-23.15c13.203-11.087,30.848-5.383,34.532,11.324
		c1.093,4.954,1.466,10.144,1.526,15.234c0.236,19.991,0.208,39.985,0.301,59.977c0.009,1.84,0.181,3.68,0.296,5.878
		c10.196-0.146,19.847,0.384,29.815-0.365c0-1.769,0-3.029,0-4.288c-0.002-25.752,0.033-51.504-0.05-77.255
		c-0.012-3.662-0.378-7.356-0.958-10.975c-1.965-12.272-8.204-21.671-19.199-27.733c-8.722-4.81-18.055-6.229-27.84-4.867
		c-9.781,1.361-18.147,5.918-25.938,11.725c-1.193,0.89-2.446,1.698-4.382,3.034c0-3.06,0.006-5.104-0.001-7.148
		C-693.757,322.464-693.819,304.712-693.88,286.96z M-517.901,406.681c7.447,1,3211.1,0.632,3214.49-0.309
		c0.986-8.562,0.563-55.411-0.512-58.616c-1071.251,0-2142.484,0-3213.978,0C-517.901,367.489-517.901,386.933-517.901,406.681z
		 M-1285.464,292.041c-9.555,55.264-19.074,110.314-28.654,165.726c10.527,0,20.511,0,30.739,0
		c2.022-11.768,3.985-23.26,5.974-34.748c1.964-11.34,3.876-22.689,5.955-34.009c2.073-11.29,3.585-22.697,6.128-33.894
		c0.324,0.016,0.648,0.031,0.972,0.046c11.413,34.208,22.827,68.416,34.24,102.624c9.614,0,18.825,0,28.14,0
		c3.952-11.755,7.823-23.267,11.692-34.777c3.82-11.362,7.601-22.738,11.469-34.084c3.861-11.323,7.292-22.806,12.525-33.743
		c5.784,34.157,11.567,68.314,17.323,102.31c6.249,1.084,26.559,0.81,30.165-0.444c-9.178-54.9-18.366-109.868-27.572-164.94
		c-10.444,0-20.44,0-30.675,0c-12.817,38.254-25.574,76.326-38.331,114.398c-0.361,0.009-0.724,0.016-1.085,0.023
		c-12.771-38.119-25.542-76.239-38.356-114.487C-1264.921,292.041-1274.806,292.041-1285.464,292.041z M-1807.613,443.287
		c-0.596,5.498-0.976,10.056-1.608,14.577c-0.932,6.668-4.722,11.46-10.492,14.635c-2.637,1.451-5.466,2.737-8.366,3.489
		c-8.004,2.074-16.186,2.047-24.286,0.758c-5.895-0.939-11.465-3.121-15.94-7.249c-1.814-1.673-3.646-2.225-6.012-2.199
		c-8.794,0.094-17.59,0.023-26.385,0.054c-1.177,0.005-2.353,0.234-3.376,0.343c-0.096,0.607-0.174,0.777-0.136,0.915
		c0.17,0.613,0.335,1.232,0.572,1.821c5.847,14.567,15.896,25.097,30.674,30.489c19.404,7.08,39.25,7.313,58.862,1.208
		c18.199-5.665,29.93-18.108,33.894-36.958c1.535-7.299,2.363-14.877,2.417-22.336c0.252-34.379,0.123-68.762,0.108-103.143
		c0-1.377-0.212-2.754-0.328-4.159c-10.026,0-19.685,0-29.252,0c-1.479,4.181,0.461,8.44-1.432,12.594
		c-1.662-1.352-3.009-2.458-4.368-3.55c-5.913-4.76-12.374-8.496-19.742-10.533c-28.257-7.813-57.735,7.814-67.72,35.972
		c-4.543,12.812-5.273,26.024-2.77,39.26c4.116,21.759,16.38,37.675,37.239,45.169c20.215,7.263,39.713,5.186,56.403-10.026
		C-1809.429,444.21-1809.109,444.106-1807.613,443.287z M-1920.957,457.88c-21.494-55.859-42.697-110.965-63.806-165.824
		c-11.015,0-21.365,0-31.952,0c-21.39,55.193-42.733,110.264-64.252,165.789c11.206,0,21.71,0,32.599,0
		c4.425-11.219,8.863-22.474,13.252-33.602c23.081,0,45.719,0,68.519,0c4.327,11.362,8.572,22.51,12.809,33.637
		C-1942.852,457.88-1932.344,457.88-1920.957,457.88z M-1431.953,347.573c-0.975-0.17-1.162-0.147-1.265-0.229
		c-0.874-0.692-1.744-1.391-2.596-2.111c-14.832-12.549-31.856-16.156-50.31-10.973c-18.873,5.3-31.169,18.283-38.125,36.324
		c-4.275,11.087-5.157,22.701-3.912,34.482c2.189,20.715,11.897,36.899,29.488,48.105c10.321,6.576,21.723,8.964,33.939,7.801
		c10.914-1.04,20.244-5.511,28.617-12.356c1.127-0.921,1.948-2.573,4.383-2.266c0,3.854,0,7.612,0,11.642
		c10.342,0.046,20.161,0.413,29.945-0.188c0-41.106,0-81.649,0-122.502c-10.172-0.201-19.987-0.116-30.166-0.093
		C-1431.953,339.7-1431.953,343.496-1431.953,347.573z M-1006.88,422.323c-0.689,0.451-1.133,0.661-1.478,0.979
		c-9.425,8.707-20.682,11.598-33.224,10.62c-15.073-1.176-26.782-11.261-29.993-26.006c-0.152-0.698-0.02-1.46-0.02-2.755
		c32.969,0,65.668,0,98.788,0c0.254-7.9,0.025-15.228-1.545-22.415c-5.378-24.612-19.827-41.027-44.247-48.148
		c-7.584-2.212-15.403-2.684-23.28-2.403c-24.734,0.881-46.431,16.3-55.263,39.439c-4.363,11.432-5.563,23.264-3.859,35.372
		c3.306,23.484,15.684,40.45,37.66,49.293c19.573,7.876,39.494,6.793,58.782-1.729c9.562-4.224,16.741-11.445,23.06-20.268
		C-990.326,430.138-998.669,426.199-1006.88,422.323z M-1751.933,396.803c-1.006,34.055,27.932,64.738,64.049,64.567
		c36.306-0.173,64.979-28.794,64.908-64.953c-0.071-35.972-28.996-64.037-65.535-64.356
		C-1719.685,331.789-1752.945,359.027-1751.933,396.803z M-777.907,419.308c-2.927,2.484-5.331,4.845-8.044,6.768
		c-9.097,6.448-19.475,7.97-30.213,6.734c-14.163-1.63-24.87-8.73-29.558-22.499c-4.751-13.953-2.741-27.052,7.617-38.364
		c13.305-14.529,42.004-14.528,54.497-2.787c1.73,1.626,3.578,3.128,5.56,4.851c8.448-4.631,16.771-9.193,25.313-13.875
		c-1.019-1.493-1.58-2.442-2.262-3.295c-7.783-9.741-17.513-16.776-29.346-20.764c-12.042-4.059-24.373-4.799-36.933-3.09
		c-26.446,3.601-53.345,22.877-57.317,56.508c-3.636,30.779,14.813,58.302,40.737,67.251c17.445,6.021,35.159,6.23,52.811,0.862
		c10.952-3.331,20.17-9.553,27.752-18.146c1.033-1.171,1.938-2.454,3.181-4.043C-762.162,429.968-769.936,424.704-777.907,419.308z
		 M-1574.144,457.868c0-2.323,0-4.062,0-5.799c0.003-17.275-0.063-34.55,0.039-51.823c0.053-8.959,0.527-17.906,2.735-26.655
		c1.079-4.276,3.057-8.076,6.302-11.112c3.271-3.061,7.034-4.315,11.461-2.818c1.628,0.55,3.281,1.027,5.348,1.669
		c3.147-8.741,6.21-17.245,9.307-25.846c-3.467-2.257-7.008-3.148-10.697-3.274c-10.815-0.37-19.087,4.277-25.242,13.033
		c-0.814,1.158-1.057,2.985-3.486,3.412c0-4.583,0-8.831,0-12.985c-6.961-0.958-22.799-0.68-26.015,0.382
		c-0.908,9.958-0.481,118.163,0.533,121.816C-1594.208,457.868-1584.503,457.868-1574.144,457.868z M-924.034,457.802
		c0-2.383,0-4.134,0-5.885c0.003-16.622-0.091-33.246,0.047-49.867c0.077-9.263,0.321-18.54,2.505-27.628
		c0.949-3.948,2.56-7.559,5.247-10.637c3.733-4.276,8.224-5.889,13.747-3.874c1.31,0.478,2.657,0.855,4.349,1.395
		c3.155-8.755,6.215-17.246,9.349-25.943c-3.562-2.017-7.047-3.043-10.749-3.16c-10.593-0.334-18.829,4.071-24.914,12.658
		c-0.933,1.317-1.863,2.635-2.794,3.953c-0.322-0.136-0.645-0.273-0.967-0.41c0-4.239,0-8.479,0-12.932c-8.837,0-17.217,0-25.528,0
		c-1.117,4.899-0.964,118.506,0.145,122.329C-943.979,457.802-934.312,457.802-924.034,457.802z"/>
	<path fill-rule="evenodd" clip-rule="evenodd" fill="none" d="M-693.88,286.96c0.061,17.752,0.123,35.504,0.182,53.256
		c0.007,2.044,0.001,4.088,0.001,7.148c1.936-1.335,3.189-2.144,4.382-3.034c7.791-5.806,16.157-10.364,25.938-11.725
		c9.785-1.362,19.118,0.057,27.84,4.867c10.995,6.063,17.234,15.461,19.199,27.733c0.58,3.619,0.946,7.313,0.958,10.975
		c0.083,25.751,0.048,51.503,0.05,77.255c0,1.259,0,2.52,0,4.288c-9.968,0.749-19.619,0.22-29.815,0.365
		c-0.115-2.198-0.287-4.038-0.296-5.878c-0.093-19.992-0.065-39.986-0.301-59.977c-0.06-5.09-0.434-10.28-1.526-15.234
		c-3.684-16.707-21.33-22.412-34.532-11.324c-7.167,6.02-10.349,14.098-11.116,23.15c-0.539,6.367-0.697,12.778-0.743,19.172
		c-0.105,14.715-0.037,29.431-0.04,44.146c0,1.73,0,3.461,0,5.872c-10.225,0.128-20.036,0.131-30.25-0.02
		c-0.089-1.954-0.221-3.517-0.222-5.079c-0.01-53.743-0.013-107.486,0.014-161.229c0-1.577,0.336-3.152,0.515-4.729
		C-713.72,286.96-703.8,286.96-693.88,286.96z"/>
	<path fill-rule="evenodd" clip-rule="evenodd" fill="none" d="M-517.901,406.681c0-19.748,0-39.192,0-58.924
		c1071.494,0,2142.727,0,3213.978,0c1.075,3.205,1.498,50.054,0.512,58.616C2693.199,407.313-510.454,407.681-517.901,406.681z"/>
	<path fill-rule="evenodd" clip-rule="evenodd" fill="none" d="M-1285.464,292.041c10.658,0,20.543,0,30.649,0
		c12.814,38.249,25.585,76.368,38.356,114.487c0.362-0.008,0.724-0.015,1.085-0.023c12.757-38.072,25.514-76.144,38.331-114.398
		c10.234,0,20.23,0,30.675,0c9.206,55.072,18.395,110.04,27.572,164.94c-3.606,1.254-23.917,1.528-30.165,0.444
		c-5.756-33.995-11.54-68.152-17.323-102.31c-5.233,10.937-8.664,22.42-12.525,33.743c-3.868,11.346-7.649,22.722-11.469,34.084
		c-3.869,11.511-7.74,23.022-11.692,34.777c-9.315,0-18.526,0-28.14,0c-11.414-34.208-22.827-68.416-34.24-102.624
		c-0.324-0.016-0.648-0.031-0.972-0.046c-2.543,11.197-4.056,22.604-6.128,33.894c-2.078,11.319-3.99,22.669-5.955,34.009
		c-1.989,11.488-3.952,22.98-5.974,34.748c-10.228,0-20.212,0-30.739,0C-1304.538,402.355-1295.02,347.305-1285.464,292.041z"/>
	<path fill-rule="evenodd" clip-rule="evenodd" fill="none" d="M-1807.613,443.287c-1.496,0.819-1.816,0.923-2.042,1.129
		c-16.689,15.212-36.188,17.289-56.403,10.026c-20.859-7.494-33.123-23.41-37.239-45.169c-2.504-13.235-1.773-26.448,2.77-39.26
		c9.985-28.158,39.463-43.785,67.72-35.972c7.368,2.038,13.829,5.773,19.742,10.533c1.358,1.093,2.706,2.199,4.368,3.55
		c1.893-4.153-0.047-8.413,1.432-12.594c9.567,0,19.226,0,29.252,0c0.116,1.405,0.328,2.782,0.328,4.159
		c0.014,34.381,0.144,68.764-0.108,103.143c-0.055,7.459-0.882,15.037-2.417,22.336c-3.964,18.85-15.695,31.293-33.894,36.958
		c-19.612,6.104-39.458,5.872-58.862-1.208c-14.778-5.393-24.827-15.922-30.674-30.489c-0.236-0.589-0.401-1.208-0.572-1.821
		c-0.039-0.138,0.04-0.308,0.136-0.915c1.023-0.108,2.199-0.338,3.376-0.343c8.795-0.03,17.591,0.04,26.385-0.054
		c2.365-0.025,4.197,0.526,6.012,2.199c4.476,4.128,10.045,6.31,15.94,7.249c8.1,1.289,16.282,1.316,24.286-0.758
		c2.899-0.752,5.729-2.038,8.366-3.489c5.77-3.175,9.56-7.967,10.492-14.635C-1808.589,453.343-1808.209,448.785-1807.613,443.287z
		 M-1840.087,430.208c19.902,0.06,33.572-13.95,33.634-34.471c0.061-20.286-13.778-34.661-33.513-34.811
		c-20.028-0.151-34.412,14.264-34.394,34.47C-1874.342,415.453-1859.874,430.148-1840.087,430.208z"/>
	<path fill-rule="evenodd" clip-rule="evenodd" fill="none" d="M-1920.957,457.88c-11.388,0-21.896,0-32.832,0
		c-4.237-11.127-8.482-22.274-12.809-33.637c-22.8,0-45.438,0-68.519,0c-4.389,11.128-8.827,22.383-13.252,33.602
		c-10.889,0-21.393,0-32.599,0c21.519-55.524,42.862-110.596,64.252-165.789c10.586,0,20.937,0,31.952,0
		C-1963.654,346.915-1942.45,402.021-1920.957,457.88z M-2000.38,336.833c-0.325,0.015-0.65,0.029-0.976,0.044
		c-7.312,18.606-14.623,37.213-22.101,56.242c15.364,0,29.931,0,45.218,0C-1985.75,374.023-1993.065,355.428-2000.38,336.833z"/>
	<path fill-rule="evenodd" clip-rule="evenodd" fill="none" d="M-1431.953,347.573c0-4.078,0-7.873,0-12.366
		c10.178-0.023,19.993-0.108,30.166,0.093c0,40.853,0,81.396,0,122.502c-9.784,0.602-19.603,0.234-29.945,0.188
		c0-4.029,0-7.788,0-11.642c-2.435-0.308-3.256,1.345-4.383,2.266c-8.373,6.846-17.703,11.316-28.617,12.356
		c-12.217,1.163-23.618-1.225-33.939-7.801c-17.591-11.206-27.299-27.391-29.488-48.105c-1.245-11.781-0.364-23.395,3.912-34.482
		c6.957-18.041,19.253-31.024,38.125-36.324c18.454-5.183,35.478-1.576,50.31,10.973c0.852,0.72,1.722,1.419,2.596,2.111
		C-1433.114,347.426-1432.928,347.403-1431.953,347.573z M-1464.16,433.087c14.373-0.053,26.184-8.337,31.173-21.953
		c2.7-7.371,3.085-14.957,1.862-22.671c-2.584-16.294-15.08-27.289-32.117-28.226c-15.332-0.843-29.054,9.149-33.321,24.279
		c-1.9,6.737-2.042,13.55-0.804,20.414C-1494.353,421.642-1480.781,433.147-1464.16,433.087z"/>
	<path fill-rule="evenodd" clip-rule="evenodd" fill="none" d="M-1006.88,422.323c8.211,3.876,16.554,7.814,25.38,11.98
		c-6.319,8.822-13.499,16.044-23.06,20.268c-19.288,8.521-39.208,9.604-58.782,1.729c-21.977-8.843-34.354-25.809-37.66-49.293
		c-1.704-12.108-0.504-23.94,3.859-35.372c8.832-23.139,30.528-38.559,55.263-39.439c7.877-0.28,15.696,0.191,23.28,2.403
		c24.42,7.121,38.869,23.536,44.247,48.148c1.57,7.188,1.8,14.515,1.545,22.415c-33.12,0-65.819,0-98.788,0
		c0,1.295-0.133,2.057,0.02,2.755c3.211,14.745,14.92,24.83,29.993,26.006c12.542,0.978,23.799-1.913,33.224-10.62
		C-1008.014,422.984-1007.569,422.774-1006.88,422.323z M-1004.123,381.014c-1.551-11.965-16.984-22.697-32.362-22.73
		c-16.275-0.035-31.283,10.234-33.131,22.73C-1047.788,381.014-1025.971,381.014-1004.123,381.014z"/>
	<path fill-rule="evenodd" clip-rule="evenodd" fill="none" d="M-1751.933,396.803c-1.012-37.776,32.248-65.014,63.422-64.742
		c36.539,0.319,65.464,28.384,65.535,64.356c0.071,36.159-28.602,64.78-64.908,64.953
		C-1724.001,461.541-1752.939,430.857-1751.933,396.803z M-1721.768,396.581c0.092,0.019,0.185,0.036,0.277,0.055
		c0.12,2.074,0.091,4.169,0.382,6.219c1.945,13.681,9.087,23.682,22.279,28.014c13.545,4.449,25.996,1.741,35.842-9.177
		c8.573-9.504,10.49-20.884,8.371-33.15c-2.757-15.958-15.452-27.002-31.583-27.601c-16.326-0.606-29.854,9.201-33.882,24.792
		C-1720.994,389.258-1721.225,392.96-1721.768,396.581z"/>
	<path fill-rule="evenodd" clip-rule="evenodd" fill="none" d="M-777.907,419.308c7.971,5.396,15.745,10.66,23.795,16.111
		c-1.243,1.589-2.148,2.872-3.181,4.043c-7.582,8.594-16.8,14.815-27.752,18.146c-17.651,5.368-35.366,5.159-52.811-0.862
		c-25.924-8.949-44.373-36.473-40.737-67.251c3.972-33.631,30.871-52.908,57.317-56.508c12.56-1.709,24.891-0.969,36.933,3.09
		c11.833,3.988,21.563,11.023,29.346,20.764c0.682,0.853,1.243,1.803,2.262,3.295c-8.542,4.683-16.865,9.245-25.313,13.875
		c-1.981-1.723-3.829-3.225-5.56-4.851c-12.493-11.742-41.192-11.742-54.497,2.787c-10.358,11.312-12.368,24.411-7.617,38.364
		c4.688,13.769,15.395,20.869,29.558,22.499c10.738,1.235,21.116-0.286,30.213-6.734
		C-783.237,424.152-780.833,421.792-777.907,419.308z"/>
	<path fill-rule="evenodd" clip-rule="evenodd" fill="none" d="M-1574.144,457.868c-10.359,0-20.063,0-29.715,0
		c-1.014-3.653-1.44-111.858-0.533-121.816c3.216-1.062,19.054-1.34,26.015-0.382c0,4.154,0,8.401,0,12.985
		c2.43-0.427,2.672-2.254,3.486-3.412c6.155-8.756,14.427-13.403,25.242-13.033c3.689,0.126,7.23,1.017,10.697,3.274
		c-3.097,8.601-6.16,17.105-9.307,25.846c-2.067-0.642-3.72-1.119-5.348-1.669c-4.428-1.497-8.19-0.242-11.461,2.818
		c-3.245,3.036-5.223,6.836-6.302,11.112c-2.208,8.749-2.682,17.696-2.735,26.655c-0.102,17.273-0.036,34.548-0.039,51.823
		C-1574.145,453.807-1574.144,455.545-1574.144,457.868z"/>
	<path fill-rule="evenodd" clip-rule="evenodd" fill="none" d="M-924.034,457.802c-10.278,0-19.945,0-29.564,0
		c-1.109-3.823-1.262-117.43-0.145-122.329c8.311,0,16.691,0,25.528,0c0,4.453,0,8.692,0,12.932c0.323,0.136,0.645,0.273,0.967,0.41
		c0.931-1.318,1.861-2.636,2.794-3.953c6.085-8.587,14.321-12.992,24.914-12.658c3.702,0.117,7.187,1.143,10.749,3.16
		c-3.134,8.697-6.193,17.188-9.349,25.943c-1.692-0.54-3.039-0.917-4.349-1.395c-5.523-2.015-10.014-0.402-13.747,3.874
		c-2.688,3.078-4.298,6.689-5.247,10.637c-2.184,9.088-2.428,18.365-2.505,27.628c-0.138,16.621-0.044,33.245-0.047,49.867
		C-924.034,453.668-924.034,455.419-924.034,457.802z"/>
	<path fill-rule="evenodd" clip-rule="evenodd" fill="none" d="M-1840.087,430.208c-19.787-0.06-34.255-14.755-34.273-34.811
		c-0.018-20.206,14.365-34.622,34.394-34.47c19.735,0.149,33.574,14.525,33.513,34.811
		C-1806.515,416.258-1820.185,430.268-1840.087,430.208z"/>
	<path fill-rule="evenodd" clip-rule="evenodd" fill="none" d="M-2000.38,336.833c7.314,18.595,14.63,37.19,22.142,56.286
		c-15.287,0-29.854,0-45.218,0c7.478-19.029,14.789-37.636,22.101-56.242C-2001.03,336.862-2000.705,336.848-2000.38,336.833z"/>
	<path fill-rule="evenodd" clip-rule="evenodd" fill="none" d="M-1464.16,433.087c-16.621,0.061-30.193-11.445-33.208-28.157
		c-1.238-6.863-1.096-13.677,0.804-20.414c4.268-15.13,17.989-25.122,33.321-24.279c17.037,0.937,29.533,11.932,32.117,28.226
		c1.223,7.714,0.838,15.3-1.862,22.671C-1437.976,424.75-1449.787,433.034-1464.16,433.087z"/>
	<path fill-rule="evenodd" clip-rule="evenodd" fill="none" d="M-1004.123,381.014c-21.848,0-43.665,0-65.493,0
		c1.848-12.496,16.855-22.765,33.131-22.73C-1021.107,358.317-1005.674,369.049-1004.123,381.014z"/>
	<path fill-rule="evenodd" clip-rule="evenodd" fill="none" d="M-1721.768,396.581c0.543-3.621,0.774-7.323,1.686-10.849
		c4.029-15.591,17.556-25.397,33.882-24.792c16.131,0.599,28.826,11.643,31.583,27.601c2.119,12.266,0.202,23.646-8.371,33.15
		c-9.847,10.918-22.297,13.626-35.842,9.177c-13.191-4.332-20.334-14.333-22.279-28.014c-0.292-2.05-0.263-4.145-0.382-6.219
		C-1721.583,396.617-1721.676,396.6-1721.768,396.581z"/>
</g>
</svg>
