<?xml version="1.0" encoding="utf-8"?>
<!-- Generator: Adobe Illustrator 16.0.0, SVG Export Plug-In . SVG Version: 6.00 Build 0)  -->
<!DOCTYPE svg PUBLIC "-//W3C//DTD SVG 1.1//EN" "http://www.w3.org/Graphics/SVG/1.1/DTD/svg11.dtd">
<svg version="1.1" id="Layer_1" xmlns="http://www.w3.org/2000/svg" xmlns:xlink="http://www.w3.org/1999/xlink" x="0px" y="0px"
	 width="612px" height="792px" viewBox="0 0 612 792" enable-background="new 0 0 612 792" xml:space="preserve">
<g>
	<path fill-rule="evenodd" clip-rule="evenodd" fill="none" d="M-226.72,324.48c965.12,0,1930.239,0,2895.36,0
		c0,47.84,0,95.68,0,143.52c-1574.721,0-3149.44,0-4724.16,0c0-6.72,0-13.44,0-20.16c6.605,0,13.209,0,20.083,0
		c0,6.511,0,12.871,0,19.172c0.48,0.167,0.699,0.31,0.919,0.31c20.397,0.021,40.794,0.019,61.191,0.062
		c1.52,0.004,1.653-0.779,1.647-1.962c-0.029-5.039-0.017-10.079-0.005-15.118c0.002-0.838,0.082-1.675,0.13-2.619
		c5.826,0,11.344-0.085,16.856,0.045c2.034,0.048,2.759-0.409,2.741-2.617c-0.108-12.958-0.05-25.917-0.06-38.875
		c0-0.771-0.092-1.541-0.142-2.327c-14.7,0-29.148,0-43.695,0c0,7.973,0,15.817,0,23.848c6.581,0,12.955,0,19.475,0
		c0,5.171,0,10.154,0,15.219c-18.231,0-36.333,0-54.521,0c0-31.401,0-62.637,0-94.018c18.233,0,36.334,0,54.694,0
		c0,13.146,0,26.139,0,39.253c8.139,0,16.019,0,24.035,0c0-14.544,0-28.972,0-43.667c-6.519,0-12.883,0-19.52,0
		c0-3.839,0.04-7.42-0.012-10.999c-0.044-3.022-0.194-6.043-0.297-9.065c226.56,0,453.12,0,679.68,0c0,8.04,0,16.079,0,24.359
		c6.842,0,13.289,0,19.838,0c0,31.538,0,62.83,0,94.193c-18.253,0-36.309,0-54.728,0c0-13.084,0-26.063,0-39.102
		c-8.241,0-16.118,0-24.133,0c0,14.582,0,29.018,0,43.727c6.571,0,13.008,0,19.759,0c0,6.685,0,13.104,0,19.542
		c21.396,0,42.469,0,63.769,0c0-6.528,0-12.895,0-19.566c6.646,0,13.073,0,19.654,0c0-41.259,0-82.206,0-123.153
		c151.68,0,303.36,0,455.04,0c-0.104,0.941-0.3,1.882-0.3,2.824c-0.015,45.673,0.004,91.345-0.063,137.018
		c-0.003,2.333,0.445,3.113,2.986,3.105c32.555-0.097,65.11-0.063,97.665-0.063c0.855,0,1.71,0,2.602,0c0-8.243,0-16.173,0-24.325
		c-26.334,0-52.455,0-78.628,0c0-11.766,0-23.305,0-35.063c19.764,0,39.328,0,59,0c0-8.086,0-15.95,0-24.136
		c-19.78,0-39.401,0-59.042,0c0-11.805,0-23.286,0-35.087c26.34,0,52.524,0,78.98,0c0-8.304,0-16.288,0-24.272
		c40.48,0,80.96,0,121.44,0c0,13.209,0,26.419,0,39.86c-19.914,0-39.441,0-59.075,0c0,6.571,0,12.906,0,19.361
		c1.487,0.098,2.809,0.185,4.4,0.29c0,1.518,0,2.934,0,4.349c-1.488,0-2.975,0-4.556,0c-0.116-1.541-0.214-2.857-0.317-4.229
		c-6.593,0-13.013,0-19.486,0c0,21.217,0,42.271,0,63.41c6.566,0,12.992,0,19.48,0c0.125-1.549,0.237-2.942,0.366-4.534
		c1.662,0,3.093,0,4.524,0c0,1.555,0,3.11,0,4.692c-1.772,0.09-3.094,0.157-4.437,0.225c0,6.565,0,12.856,0,19.275
		c27.771,0,55.39,0,83.231,0c0-1.131,0-2.081,0-3.03c0-45.599,0.001-91.198-0.005-136.797c0-0.957-0.082-1.915-0.125-2.873
		c20.8,0,41.6,0,62.4,0c0,8.023,0,16.048,0,24.188c8.205,0,16.057,0,24.247,0c0-2.258,0.022-4.386-0.003-6.513
		c-0.07-5.891-0.161-11.783-0.243-17.674c27.2,0,54.4,0,81.6,0c0,13.167,0,26.333,0,39.827c-6.862,0-13.362,0-19.933,0
		c0,8.13,0,15.93,0,24.042c6.617,0,13.121,0,19.943,0c0,19.919,0,39.53,0,59.415c6.676,0,13.027,0,19.644,0
		c0,6.628,0,12.984,0,19.293c0.481,0.147,0.704,0.275,0.926,0.275c13.834,0.017,27.668,0.007,41.503,0.052
		c1.547,0.005,1.618-0.838,1.613-1.99c-0.023-4.878-0.01-9.756-0.009-14.634c0-2.455,0-4.909,0-7.672c-13.369,0-26.424,0-39.463,0
		c0-18.41,0-36.504,0-54.821c13.208,0,26.21,0,39.283,0c0-8.089,0-15.953,0-24.135c-13.237,0-26.297,0-39.507,0
		c0-13.431,0-26.541,0-39.65c33.92,0,67.84,0,101.76,0c-0.096,0.301-0.273,0.603-0.274,0.905c-0.022,7.26,0.009,14.522-0.057,21.782
		c-0.016,1.751,1.032,1.645,2.195,1.643c6.703-0.011,13.406,0,20.108-0.016c0.607-0.001,1.214-0.139,2.029-0.239
		C-226.72,340.422-226.72,332.451-226.72,324.48z M59.431,388.191c0,26.33,0,52.66,0,78.972c8.23,0,16.088,0,23.995,0
		c0-27.81,0-55.417,0-83.028c-6.529,0-12.879,0-19.261,0c-0.095,1.502-0.178,2.82-0.26,4.131c-1.693,0-3.117,0-4.541,0
		c0-1.412,0-2.825,0-4.293c1.611-0.095,2.938-0.174,4.407-0.26c0-6.501,0-12.854,0-19.234c-27.904,0-55.664,0-83.354,0
		c0,34.379,0,68.545,0,102.708c8.152,0,16.105,0,24.333,0c0-26.353,0-52.529,0-78.853c1.226,0,2.178,0,3.13,0
		c16.071,0,32.142,0.003,48.212-0.006C57.206,388.327,58.319,388.236,59.431,388.191z M2667.644,373.554
		c-845.487,0-1690.69,0-2536.128,0c0,1.113,0,2.057,0,3c0,17.519-0.017,35.039,0.011,52.559c0.008,4.815-0.685,4.144,4.216,4.144
		c556.859,0.01,1113.719,0.01,1670.579,0.01c285.829,0,571.658,0,857.487,0c1.25,0,2.501,0,3.835,0
		C2667.644,413.176,2667.644,393.444,2667.644,373.554z M-1684.698,383.786c-5.307,0-10.143,0-15.211,0c0-6.52,0-12.882,0-19.379
		c-21.392,0-42.548,0-63.768,0c0,34.325,0,68.567,0,102.787c8.125,0,16.008,0,24.225,0c0-26.349,0-52.529,0-78.724
		c11.744,0,23.151,0,34.849,0c0,26.311,0,52.489,0,78.744c8.248,0,16.203,0,24.448,0c0-26.33,0-52.509,0-78.736
		c11.69,0,23.09,0,34.834,0c0,26.32,0,52.498,0,78.751c8.23,0,16.113,0,24.157,0c0-27.755,0-55.376,0-83.277
		c-6.468,0-12.823,0-19.542,0c0-6.684,0-13.101,0-19.565c-14.821,0-29.27,0-43.992,0
		C-1684.698,370.869-1684.698,377.239-1684.698,383.786z M-941.445,467.199c8.256,0,16.208,0,24.226,0c0-27.791,0-55.416,0-83.293
		c-6.522,0-12.886,0-19.581,0c0-6.662,0-13.081,0-19.442c-14.847,0-29.357,0-44.118,0c0,6.55,0,12.907,0,19.286
		c-5.161,0-10.064,0-15.234,0c0-6.55,0-12.907,0-19.298c-21.41,0-42.549,0-63.667,0c0,34.364,0,68.544,0,102.72
		c8.142,0,16.093,0,24.26,0c0-26.316,0-52.439,0-78.646c11.676,0,23.132,0,34.766,0c0,4.501,0,8.813,0,13.126
		c0,21.037,0.034,42.073-0.05,63.11c-0.008,2.161,0.623,2.707,2.706,2.651c5.275-0.144,10.557-0.048,15.836-0.048
		c1.893,0,3.786,0,5.993,0c0-26.517,0-52.699,0-78.816c11.789,0,23.257,0,34.863,0
		C-941.445,414.826-941.445,440.892-941.445,467.199z M-1185.695,388.412c19.78,0,39.327,0,58.892,0c0,5.246,0,10.231,0,15.467
		c-19.734,0-39.283,0-59.078,0c0,6.616,0,12.98,0,19.643c-6.749,0-13.256,0-19.768,0c0,8.176,0,16.045,0,24.252
		c6.659,0,13.157,0,19.923,0c0,6.685,0,13.034,0,19.591c1.063,0,1.848,0,2.632,0c25.988,0,51.977-0.028,77.964,0.05
		c2.235,0.007,2.784-0.636,2.778-2.813c-0.073-25.988-0.047-51.977-0.047-77.965c0-0.84,0-1.68,0-2.781c-6.751,0-13.114,0-19.728,0
		c0-6.624,0-12.989,0-19.434c-21.324,0-42.387,0-63.569,0C-1185.695,372.378-1185.695,380.183-1185.695,388.412z M-1889.636,388.469
		c19.843,0,39.465,0,59.067,0c0,5.226,0,10.15,0,15.384c-19.763,0-39.376,0-59.246,0c0,6.665,0,13.021,0,19.634
		c-6.691,0-13.126,0-19.678,0c0,8.141,0,16.019,0,24.254c6.597,0,13.093,0,19.727,0c0,5.867,0.108,11.381-0.053,16.887
		c-0.065,2.235,0.625,2.791,2.811,2.784c25.99-0.073,51.98-0.047,77.971-0.047c0.84,0,1.68,0,2.496,0c0-28.015,0-55.637,0-83.522
		c-6.546,0-12.901,0-19.516,0c0-6.617,0-12.974,0-19.421c-21.328,0-42.39,0-63.58,0
		C-1889.636,372.375-1889.636,380.177-1889.636,388.469z M-1494.209,364.421c-21.464,0-42.457,0-63.822,0c0,6.559,0,12.971,0,19.62
		c-6.807,0-13.245,0-19.692,0c0,21.31,0,42.37,0,63.671c6.603,0,13.049,0,19.871,0c0,6.645,0,13.059,0,19.488
		c21.374,0,42.365,0,63.449,0c0-8.039,0-15.914,0-24.042c-19.709,0-39.258,0-58.934,0c0-5.24,0-10.226,0-15.542
		c26.3,0,52.463,0,78.617,0c0-14.69,0-29.049,0-43.688c-6.506,0-12.858,0-19.488,0
		C-1494.209,377.295-1494.209,370.938-1494.209,364.421z M-165.348,447.722c6.632,0,13.127,0,19.848,0c0,6.711,0,13.067,0,19.496
		c21.309,0,42.38,0,63.758,0c0-6.565,0-12.99,0-19.629c6.674,0,13.043,0,19.459,0c0-21.293,0-42.361,0-63.748
		c-6.565,0-12.986,0-19.629,0c0-6.68,0-13.043,0-19.42c-21.308,0-42.379,0-63.684,0c0,6.508,0,12.869,0,19.572
		c-6.726,0-13.228,0-19.752,0C-165.348,405.349-165.348,426.356-165.348,447.722z M-501.67,443.202c0,8.216,0,16.084,0,23.961
		c21.334,0,42.467,0,63.563,0c0-8.079,0-15.955,0-24.078c-6.605,0-13.044,0-19.75,0c0-26.36,0-52.472,0-78.648
		c-14.78,0-29.286,0-43.809,0c0,8.028,0,15.885,0,24.004c6.633,0,13.066,0,19.453,0c0,18.371,0,36.476,0,54.761
		C-488.778,443.202-495.154,443.202-501.67,443.202z M-251.146,443.25c-6.729,0-13.166,0-19.574,0c0,8.14,0,16.018,0,23.912
		c21.302,0,42.437,0,63.558,0c0-8.076,0-15.948,0-24.091c-6.612,0-13.043,0-19.723,0c0-26.381,0-52.491,0-78.644
		c-14.769,0-29.28,0-43.825,0c0,8.024,0,15.887,0,24.006c6.613,0,13.052,0,19.563,0
		C-251.146,406.737-251.146,424.784-251.146,443.25z"/>
	<path fill-rule="evenodd" clip-rule="evenodd" fill="none" d="M-689.92,324.48c0,7.984,0,15.968,0,24.272
		c-26.456,0-52.641,0-78.98,0c0,11.801,0,23.283,0,35.087c19.642,0,39.263,0,59.042,0c0,8.186,0,16.05,0,24.136
		c-19.672,0-39.237,0-59,0c0,11.759,0,23.298,0,35.063c26.173,0,52.294,0,78.628,0c0,8.152,0,16.082,0,24.325
		c-0.892,0-1.746,0-2.602,0c-32.555,0-65.11-0.033-97.665,0.063c-2.541,0.008-2.989-0.772-2.986-3.105
		c0.066-45.673,0.047-91.345,0.063-137.018c0-0.942,0.196-1.883,0.3-2.824C-758.72,324.48-724.32,324.48-689.92,324.48z"/>
	<path fill-rule="evenodd" clip-rule="evenodd" fill="none" d="M-1972,324.48c0.103,3.022,0.253,6.043,0.297,9.065
		c0.052,3.579,0.012,7.16,0.012,10.999c6.637,0,13,0,19.52,0c0,14.694,0,29.123,0,43.667c-8.017,0-15.896,0-24.035,0
		c0-13.114,0-26.108,0-39.253c-18.36,0-36.461,0-54.694,0c0,31.381,0,62.617,0,94.018c18.188,0,36.291,0,54.521,0
		c0-5.064,0-10.048,0-15.219c-6.521,0-12.895,0-19.475,0c0-8.03,0-15.875,0-23.848c14.546,0,28.995,0,43.695,0
		c0.05,0.786,0.142,1.557,0.142,2.327c0.009,12.958-0.048,25.917,0.06,38.875c0.019,2.208-0.707,2.665-2.741,2.617
		c-5.512-0.13-11.03-0.045-16.856-0.045c-0.049,0.944-0.128,1.781-0.13,2.619c-0.012,5.039-0.023,10.079,0.005,15.118
		c0.006,1.183-0.127,1.966-1.647,1.962c-20.397-0.043-40.794-0.041-61.191-0.062c-0.22,0-0.439-0.143-0.919-0.31
		c0-6.301,0-12.661,0-19.172c-6.874,0-13.479,0-20.083,0c0-34.4,0-68.8,0-103.2c6.599,0,13.198,0,20.16,0c0-6.959,0-13.56,0-20.16
		C-2014.24,324.48-1993.12,324.48-1972,324.48z"/>
	<path fill-rule="evenodd" clip-rule="evenodd" fill="none" d="M-623.155,388.34c0-1.416,0-2.831,0-4.349
		c-1.591-0.105-2.913-0.192-4.4-0.29c0-6.455,0-12.79,0-19.361c19.633,0,39.161,0,59.075,0c0-13.441,0-26.65,0-39.86c8,0,16,0,24,0
		c0.043,0.958,0.125,1.916,0.125,2.873c0.006,45.599,0.005,91.198,0.005,136.797c0,0.949,0,1.899,0,3.03c-27.841,0-55.46,0-83.231,0
		c0-6.419,0-12.71,0-19.275c1.342-0.067,2.664-0.135,4.437-0.225c0-1.582,0-3.138,0-4.692l-0.092,0.085c18.197,0,36.393,0,54.599,0
		c0-18.361,0-36.46,0-54.793c-18.321,0-36.46,0-54.599,0L-623.155,388.34z"/>
	<path fill-rule="evenodd" clip-rule="evenodd" fill="none" d="M-1248.16,324.48c0,40.947,0,81.894,0,123.153
		c-6.581,0-13.009,0-19.654,0c0,6.672,0,13.038,0,19.566c-21.299,0-42.373,0-63.769,0c0-6.438,0-12.857,0-19.542
		c-6.751,0-13.188,0-19.759,0c0-14.709,0-29.145,0-43.727c8.015,0,15.892,0,24.133,0c0,13.038,0,26.018,0,39.102
		c18.418,0,36.474,0,54.728,0c0-31.363,0-62.655,0-94.193c-6.549,0-12.996,0-19.838,0c0-8.28,0-16.32,0-24.359
		C-1277.6,324.48-1262.88,324.48-1248.16,324.48z"/>
	<path fill-rule="evenodd" clip-rule="evenodd" fill="none" d="M-352.48,324.48c0,13.11,0,26.22,0,39.65c13.21,0,26.271,0,39.507,0
		c0,8.183,0,16.046,0,24.135c-13.073,0-26.075,0-39.283,0c0,18.317,0,36.411,0,54.821c13.039,0,26.094,0,39.463,0
		c0,2.763,0,5.217,0,7.672c-0.001,4.878-0.015,9.756,0.009,14.634c0.005,1.152-0.066,1.995-1.613,1.99
		c-13.834-0.045-27.668-0.035-41.503-0.052c-0.223,0-0.445-0.128-0.926-0.275c0-6.309,0-12.665,0-19.293c-6.616,0-12.968,0-19.644,0
		c0-19.885,0-39.495,0-59.415c-6.822,0-13.326,0-19.943,0c0-8.111,0-15.912,0-24.042c6.57,0,13.07,0,19.933,0
		c0-13.493,0-26.66,0-39.827C-368.479,324.48-360.48,324.48-352.48,324.48z"/>
	<path fill-rule="evenodd" clip-rule="evenodd" fill="none" d="M-458.08,324.48c0.083,5.891,0.173,11.783,0.243,17.674
		c0.025,2.127,0.003,4.255,0.003,6.513c-8.189,0-16.042,0-24.247,0c0-8.14,0-16.164,0-24.188
		C-474.08,324.48-466.08,324.48-458.08,324.48z"/>
	<path fill-rule="evenodd" clip-rule="evenodd" fill="none" d="M-226.72,324.48c0,7.971,0,15.942,0,24.075
		c-0.814,0.1-1.421,0.237-2.029,0.239c-6.702,0.016-13.405,0.004-20.108,0.016c-1.163,0.002-2.211,0.108-2.195-1.643
		c0.066-7.26,0.035-14.521,0.057-21.782c0.001-0.302,0.179-0.604,0.274-0.905C-242.72,324.48-234.72,324.48-226.72,324.48z"/>
	<path fill-rule="evenodd" clip-rule="evenodd" fill="none" d="M-2035.36,324.48c0,6.6,0,13.201,0,20.16c-6.962,0-13.561,0-20.16,0
		c0-6.72,0-13.44,0-20.16C-2048.8,324.48-2042.08,324.48-2035.36,324.48z"/>
	<path fill-rule="evenodd" clip-rule="evenodd" fill="none" d="M2667.644,373.554c0,19.891,0,39.622,0,59.712
		c-1.334,0-2.585,0-3.835,0c-285.829,0-571.658,0-857.487,0c-556.86,0-1113.72,0-1670.579-0.01c-4.9,0-4.208,0.672-4.216-4.144
		c-0.027-17.52-0.011-35.04-0.011-52.559c0-0.943,0-1.887,0-3C976.953,373.554,1822.156,373.554,2667.644,373.554z"/>
	<path fill-rule="evenodd" clip-rule="evenodd" fill="none" d="M-1684.698,383.786c0-6.546,0-12.917,0-19.399
		c14.722,0,29.171,0,43.992,0c0,6.464,0,12.881,0,19.565c6.719,0,13.074,0,19.542,0c0,27.901,0,55.522,0,83.277
		c-8.044,0-15.927,0-24.157,0c0-26.254,0-52.432,0-78.751c-11.744,0-23.144,0-34.834,0c0,26.227,0,52.406,0,78.736
		c-8.245,0-16.2,0-24.448,0c0-26.255,0-52.433,0-78.744c-11.698,0-23.105,0-34.849,0c0,26.195,0,52.375,0,78.724
		c-8.216,0-16.1,0-24.225,0c0-34.22,0-68.462,0-102.787c21.219,0,42.375,0,63.768,0c0,6.497,0,12.859,0,19.379
		C-1694.841,383.786-1690.005,383.786-1684.698,383.786z"/>
	<path fill-rule="evenodd" clip-rule="evenodd" fill="none" d="M-941.445,467.199c0-26.308,0-52.373,0-78.651
		c-11.606,0-23.074,0-34.863,0c0,26.117,0,52.3,0,78.816c-2.207,0-4.1,0-5.993,0c-5.279,0-10.561-0.096-15.836,0.048
		c-2.083,0.056-2.714-0.49-2.706-2.651c0.083-21.037,0.05-42.073,0.05-63.11c0-4.313,0-8.625,0-13.126c-11.634,0-23.09,0-34.766,0
		c0,26.207,0,52.33,0,78.646c-8.167,0-16.118,0-24.26,0c0-34.176,0-68.356,0-102.72c21.118,0,42.257,0,63.667,0
		c0,6.392,0,12.748,0,19.298c5.17,0,10.073,0,15.234,0c0-6.378,0-12.735,0-19.286c14.761,0,29.271,0,44.118,0
		c0,6.362,0,12.781,0,19.442c6.695,0,13.059,0,19.581,0c0,27.877,0,55.502,0,83.293
		C-925.237,467.199-933.189,467.199-941.445,467.199z"/>
	<path fill-rule="evenodd" clip-rule="evenodd" fill="none" d="M-1185.695,388.412c0-8.229,0-16.033,0-23.99
		c21.183,0,42.246,0,63.569,0c0,6.445,0,12.81,0,19.434c6.614,0,12.976,0,19.728,0c0,1.101,0,1.941,0,2.781
		c0,25.988-0.026,51.977,0.047,77.965c0.006,2.178-0.543,2.82-2.778,2.813c-25.988-0.078-51.977-0.05-77.964-0.05
		c-0.785,0-1.569,0-2.632,0c0-6.557,0-12.906,0-19.591c-6.767,0-13.265,0-19.923,0c0-8.207,0-16.076,0-24.252
		c6.512,0,13.019,0,19.768,0c0-6.662,0-13.026,0-19.643c19.795,0,39.344,0,59.078,0c0-5.236,0-10.222,0-15.467
		C-1146.369,388.412-1165.916,388.412-1185.695,388.412z M-1181.289,442.993c18.238,0,36.337,0,54.493,0c0-5.131,0-10.112,0-15.098
		c-18.273,0-36.369,0-54.493,0C-1181.289,433.021-1181.289,437.945-1181.289,442.993z"/>
	<path fill-rule="evenodd" clip-rule="evenodd" fill="none" d="M-1889.636,388.469c0-8.292,0-16.093,0-24.048
		c21.19,0,42.252,0,63.58,0c0,6.447,0,12.804,0,19.421c6.614,0,12.97,0,19.516,0c0,27.886,0,55.508,0,83.522
		c-0.816,0-1.656,0-2.496,0c-25.99,0-51.98-0.026-77.971,0.047c-2.186,0.007-2.876-0.549-2.811-2.784
		c0.161-5.506,0.053-11.02,0.053-16.887c-6.634,0-13.13,0-19.727,0c0-8.235,0-16.113,0-24.254c6.551,0,12.987,0,19.678,0
		c0-6.612,0-12.969,0-19.634c19.87,0,39.483,0,59.246,0c0-5.233,0-10.158,0-15.384
		C-1850.17,388.469-1869.792,388.469-1889.636,388.469z M-1830.545,427.885c-18.327,0-36.426,0-54.468,0c0,5.181,0,10.168,0,15.11
		c18.254,0,36.296,0,54.468,0C-1830.545,437.926-1830.545,433.003-1830.545,427.885z"/>
	<path fill-rule="evenodd" clip-rule="evenodd" fill="none" d="M-1494.209,364.421c0,6.517,0,12.874,0,19.506
		c6.63,0,12.982,0,19.488,0c0,14.64,0,28.998,0,43.688c-26.153,0-52.317,0-78.617,0c0,5.316,0,10.302,0,15.542
		c19.676,0,39.224,0,58.934,0c0,8.128,0,16.003,0,24.042c-21.083,0-42.075,0-63.449,0c0-6.43,0-12.844,0-19.488
		c-6.822,0-13.268,0-19.871,0c0-21.301,0-42.361,0-63.671c6.448,0,12.886,0,19.692,0c0-6.649,0-13.061,0-19.62
		C-1536.666,364.421-1515.673,364.421-1494.209,364.421z M-1498.782,388.501c-18.335,0-36.42,0-54.526,0c0,5.153,0,10.138,0,15.121
		c18.256,0,36.343,0,54.526,0C-1498.782,398.536-1498.782,393.611-1498.782,388.501z"/>
	<path fill-rule="evenodd" clip-rule="evenodd" fill="none" d="M-165.348,447.722c0-21.365,0-42.373,0-63.729
		c6.525,0,13.026,0,19.752,0c0-6.703,0-13.063,0-19.572c21.305,0,42.376,0,63.684,0c0,6.377,0,12.741,0,19.42
		c6.643,0,13.063,0,19.629,0c0,21.387,0,42.455,0,63.748c-6.416,0-12.785,0-19.459,0c0,6.639,0,13.063,0,19.629
		c-21.378,0-42.449,0-63.758,0c0-6.429,0-12.785,0-19.496C-152.221,447.722-158.716,447.722-165.348,447.722z M-141.009,388.44
		c0,18.337,0,36.375,0,54.558c18.246,0,36.35,0,54.542,0c0-18.25,0-36.362,0-54.558C-104.688,388.44-122.737,388.44-141.009,388.44z
		"/>
	<path fill-rule="evenodd" clip-rule="evenodd" fill="none" d="M-501.67,443.202c6.516,0,12.892,0,19.457,0
		c0-18.285,0-36.391,0-54.761c-6.387,0-12.82,0-19.453,0c0-8.119,0-15.976,0-24.004c14.522,0,29.028,0,43.809,0
		c0,26.177,0,52.288,0,78.648c6.706,0,13.146,0,19.75,0c0,8.123,0,15.999,0,24.078c-21.096,0-42.229,0-63.563,0
		C-501.67,459.286-501.67,451.418-501.67,443.202z"/>
	<path fill-rule="evenodd" clip-rule="evenodd" fill="none" d="M-251.146,443.25c0-18.466,0-36.513,0-54.817
		c-6.512,0-12.951,0-19.563,0c0-8.119,0-15.982,0-24.006c14.544,0,29.056,0,43.825,0c0,26.153,0,52.263,0,78.644
		c6.68,0,13.111,0,19.723,0c0,8.143,0,16.015,0,24.091c-21.122,0-42.256,0-63.558,0c0-7.895,0-15.772,0-23.912
		C-264.313,443.25-257.875,443.25-251.146,443.25z"/>
	<path fill-rule="evenodd" clip-rule="evenodd" fill="none" d="M59.434,388.187c-1.115,0.049-2.228,0.141-3.343,0.142
		c-16.07,0.009-32.141,0.006-48.212,0.006c-0.952,0-1.904,0-3.13,0c0,26.323,0,52.5,0,78.853c-8.228,0-16.181,0-24.333,0
		c0-34.163,0-68.329,0-102.708c27.69,0,55.45,0,83.354,0c0,6.38,0,12.733,0,19.234c-1.468,0.086-2.795,0.165-4.407,0.26
		c0,1.468,0,2.881,0,4.293L59.434,388.187z"/>
	<path fill-rule="evenodd" clip-rule="evenodd" fill="none" d="M59.363,388.266c1.424,0,2.848,0,4.541,0
		c0.082-1.311,0.165-2.628,0.26-4.131c6.382,0,12.732,0,19.261,0c0,27.611,0,55.219,0,83.028c-7.907,0-15.764,0-23.995,0
		c0-26.312,0-52.642,0.002-78.974C59.434,388.187,59.363,388.266,59.363,388.266z"/>
	<path fill-rule="evenodd" clip-rule="evenodd" fill="none" d="M-623.144,442.987c-1.431,0-2.862,0-4.524,0
		c-0.128,1.592-0.241,2.985-0.366,4.534c-6.489,0-12.914,0-19.48,0c0-21.14,0-42.193,0-63.41c6.473,0,12.893,0,19.486,0
		c0.103,1.371,0.202,2.688,0.317,4.229c1.581,0,3.068,0,4.556,0l-0.081-0.061c0,18.265,0,36.528,0,54.793L-623.144,442.987z"/>
	<path fill-rule="evenodd" clip-rule="evenodd" fill="none" d="M-623.235,443.072c0-18.265,0-36.528,0-54.793
		c18.139,0,36.278,0,54.599,0c0,18.333,0,36.432,0,54.793C-586.843,443.072-605.039,443.072-623.235,443.072z"/>
	<path fill-rule="evenodd" clip-rule="evenodd" fill="none" d="M-1181.289,442.993c0-5.048,0-9.972,0-15.098
		c18.124,0,36.219,0,54.493,0c0,4.985,0,9.967,0,15.098C-1144.951,442.993-1163.05,442.993-1181.289,442.993z"/>
	<path fill-rule="evenodd" clip-rule="evenodd" fill="none" d="M-1830.545,427.885c0,5.118,0,10.041,0,15.11
		c-18.172,0-36.214,0-54.468,0c0-4.942,0-9.93,0-15.11C-1866.972,427.885-1848.873,427.885-1830.545,427.885z"/>
	<path fill-rule="evenodd" clip-rule="evenodd" fill="none" d="M-1498.782,388.501c0,5.11,0,10.035,0,15.121
		c-18.183,0-36.27,0-54.526,0c0-4.983,0-9.968,0-15.121C-1535.202,388.501-1517.117,388.501-1498.782,388.501z"/>
	<path fill-rule="evenodd" clip-rule="evenodd" fill="none" d="M-141.009,388.44c18.271,0,36.32,0,54.542,0
		c0,18.195,0,36.308,0,54.558c-18.192,0-36.295,0-54.542,0C-141.009,424.815-141.009,406.777-141.009,388.44z"/>
</g>
</svg>
