<?xml version="1.0" encoding="utf-8"?>
<!-- Generator: Adobe Illustrator 16.0.0, SVG Export Plug-In . SVG Version: 6.00 Build 0)  -->
<!DOCTYPE svg PUBLIC "-//W3C//DTD SVG 1.1//EN" "http://www.w3.org/Graphics/SVG/1.1/DTD/svg11.dtd">
<svg version="1.1" id="Layer_1" xmlns="http://www.w3.org/2000/svg" xmlns:xlink="http://www.w3.org/1999/xlink" x="0px" y="0px"
	 width="612px" height="792px" viewBox="0 0 612 792" enable-background="new 0 0 612 792" xml:space="preserve">
<g>
	<path fill-rule="evenodd" clip-rule="evenodd" fill="none" d="M1264.645,402.2c0,58.555,0,117.108,0,175.671
		c-638.722,0-1277.443,0-1916.165,0c0-58.403,0-116.797,0-175.19c0.947,0.102,1.893,0.287,2.84,0.292
		c5.2,0.029,10.399,0.007,15.599,0.022c0.835,0.002,1.671,0.108,2.757,0.184c0,2.629,0,4.983,0,7.165
		c0.342,0.197,0.406,0.246,0.479,0.271c0.074,0.026,0.157,0.031,0.236,0.042c0.079,0.012,0.158,0.021,0.238,0.027
		s0.16,0.008,0.24,0.011c0.08,0.002,0.16,0.004,0.24,0.005c0.08,0.001,0.16,0.003,0.24,0.003
		c249.095,0.001,498.19,0.002,747.286,0.002c0.16,0.001,0.32,0.001,0.48,0.002c0.16,0,0.32,0.002,0.48,0.004
		c0.08,0.001,0.16,0.001,0.24,0.006c0.16,0.01,0.319,0.019,0.478,0.038c0.077,0.01,0.153,0.042,0.227,0.069
		c0.076,0.026,0.157,0.047,0.22,0.093c0.062,0.043,0.104,0.114,0.393,0.454c0,4.74,0,9.765,0,14.789
		c0,5.12-0.006,10.239,0.001,15.358c0.007,5.008-0.033,10.016,0.026,15.116c6.776,0,13.214,0,19.623,0
		c0.55-2.743,0.423-118.476-0.163-120.382c-6.374-0.002-12.806-0.054-19.488,0.028c0,7.433,0.003,14.534-0.001,21.635
		c-0.003,7.085-0.013,14.17-0.02,21.561c-250.669,0-500.991,0-751.584,0c0,2.662,0,5.022,0,7.691c-1.204,0-2.14-0.006-3.077,0.001
		c-5.997,0.049-11.994,0.101-17.991,0.151c0-57.28,0-114.56,0-171.84c297.761,0,595.521,0,893.282,0
		c-0.012,4.05-0.047,8.101-0.029,12.151c0.012,2.695,0.099,5.389,0.15,8.083c-13.375-0.001-26.746-0.001-40.438-0.001
		c0,6.877,0,13.473,0.001,20.07c-6.638,0.033-13.277,0.066-20.123,0.099c0,6.929,0,13.52,0,20.11c-6.583,0-13.166,0-19.928,0
		c-0.048,0.964-0.117,1.737-0.119,2.511c-0.012,3.738,0.014,7.477-0.013,11.215c-0.016,2.141-0.109,4.281-0.167,6.422
		c-6.539,0-13.078,0-19.58,0c-0.56,3.042-0.412,38.059,0.149,39.842c6.417,0,12.847,0,19.409,0c0.05-0.862,0.126-1.563,0.126-2.265
		c0.007-11.912,0.008-23.823-0.002-35.735c-0.001-0.633-0.107-1.266-0.162-1.898c6.674-0.042,13.348-0.085,20.216-0.129
		c0-6.835,0-13.433,0-20.031c6.667-0.018,13.333-0.036,20.124-0.055c0-6.939,0-13.549,0-20.159c0.238,0.021,0.477,0.062,0.714,0.062
		c12.68,0.006,25.359,0.011,38.039,0.004c0.45,0,0.9-0.109,1.537-0.191c0-1.871-0.013-3.611,0.002-5.351
		c0.044-4.859,0.1-9.717,0.151-14.576c39.289,0.001,78.579,0.002,117.868-0.003c0.875,0,1.75-0.08,2.624-0.12
		c-0.001,6.675-0.001,13.348-0.001,20.13c0.951,0.049,1.651,0.116,2.352,0.117c11.965,0.006,23.93,0.007,35.895-0.001
		c0.715,0,1.43-0.083,2.142-0.125c-0.064,0.474-0.181,0.945-0.182,1.417c-0.013,5.749-0.011,11.499,0,17.248
		c0.001,0.455,0.099,0.91,0.167,1.495c6.824,0,13.512,0,20.195,0.002c-0.093,0.468-0.259,0.933-0.26,1.398
		c-0.018,5.759-0.016,11.518,0.001,17.277c0.001,0.447,0.147,0.894,0.229,1.355c6.604,0,13.041,0,19.45,0
		c0.461-2.736,0.362-17.888-0.1-19.681c-0.065-0.043-0.131-0.124-0.196-0.125c-6.396-0.056-12.792-0.106-19.188-0.156
		c-0.094-0.857-0.265-1.714-0.269-2.572c-0.026-4.931-0.008-9.862-0.019-14.793c-0.002-0.85-0.072-1.7-0.117-2.689
		c-1.185,0-2.134,0.005-3.082,0c-5.564-0.034-11.129-0.071-16.692-0.106c-0.063-0.869-0.176-1.738-0.179-2.608
		c-0.018-4.946-0.004-9.893-0.015-14.839c-0.002-0.774-0.076-1.549-0.131-2.566c-1.022,0-1.879,0-2.735,0
		c-11.568,0-23.137,0.002-34.704-0.005c-0.875,0-1.749-0.067-2.624-0.103c-0.002-6.708-0.004-13.416-0.006-20.124
		c300.801,0,601.602,0,902.402,0c0,56.96,0,113.92,0,170.88c-3.358,0.026-6.717,0.064-10.075,0.074
		c-3.403,0.01-6.807-0.008-10.468-0.015c0-2.706,0-5.069,0-7.695c-253.869,0-507.47,0-761.34,0c0-3.046,0-5.824,0-8.603
		c0-2.799,0-5.599,0-8.399c0-2.879,0-5.759,0-8.639c0-2.8,0.008-5.6-0.002-8.399c-0.01-2.763-0.038-5.525-0.058-8.285
		c-6.803,0-13.252,0-19.983,0c0,1.173,0,2.195,0,3.217c0,37.996,0.001,75.991-0.007,113.986c0,1.115-0.09,2.23-0.137,3.347
		c-6.227-0.435-18.054-0.229-19.739,0.341c-0.488,4.353-0.27,37.687,0.276,39.459c6.411,0,12.84,0,19.412,0
		c0.048-0.928,0.124-1.706,0.124-2.485c0.008-11.745,0.008-23.49-0.001-35.234c0-0.715-0.089-1.43-0.136-2.144
		c6.688-0.06,13.374-0.118,20.313-0.18c0-15.669,0-31.067,0-46.253c0.317-0.259,0.373-0.32,0.442-0.354
		c0.069-0.035,0.152-0.043,0.23-0.061s0.156-0.036,0.235-0.046s0.159-0.011,0.239-0.015s0.16-0.007,0.239-0.009
		c0.08-0.003,0.16-0.003,0.24-0.004c0.16-0.001,0.319-0.002,0.479-0.003c0.08,0,0.16,0,0.24,0
		c252.102,0,504.204-0.001,756.306-0.001c0.08,0,0.16,0,0.24,0s0.16,0,0.24,0c0.079-0.001,0.159,0,0.239-0.001
		c0.16-0.002,0.32-0.003,0.48-0.005c0.08-0.002,0.159-0.006,0.239-0.009s0.16-0.004,0.24-0.012c0.079-0.009,0.157-0.024,0.236-0.038
		c0.079-0.015,0.163-0.016,0.234-0.048c0.069-0.031,0.126-0.093,0.186-0.145c0.061-0.052,0.119-0.106,0.448-0.406
		c0-2.118,0-4.483,0-7.097C1251.234,402.2,1257.939,402.2,1264.645,402.2z M181.283,516.913c0-6.537,0-13.073,0-19.569
		c-2.464-0.563-18.119-0.485-19.868,0.063c0,6.434,0,12.87,0,19.586c1.395,0,2.651,0.01,3.907-0.001
		c5.344-0.047,10.688-0.099,16.031-0.148c0,6.674,0,13.348,0,20.216c6.92,0,13.521,0,20.122,0c0.016,6.68,0.033,13.359,0.05,20.169
		c1.15,0,1.943,0,2.737,0c11.756,0,23.512,0.002,35.269-0.005c0.798-0.001,1.595-0.068,2.393-0.105
		c-0.065,0.472-0.187,0.942-0.188,1.413c-0.013,5.756-0.011,11.512,0,17.268c0.001,0.456,0.099,0.912,0.147,1.321
		c2.985,0.509,118.4,0.384,120.252-0.137c0-6.584,0-13.204,0.003-19.821c13.082,0.018,26.164,0.035,39.245,0.043
		c0.293,0,0.586-0.125,1.065-0.234c0-1.012-0.006-1.955,0.001-2.898c0.041-5.66,0.085-11.32,0.125-16.982c6.543,0,13.086,0,19.585,0
		c0.571-2.45,0.496-18.145-0.056-19.892c-6.441,0-12.884,0-19.261,0c-0.135,0.283-0.26,0.423-0.26,0.563
		c0.013,6.467,0.037,12.934,0.061,19.4c-13.368,0-26.735,0-40.44,0c0,6.874,0,13.467,0,20.061c-0.639,0.018-1.277,0.049-1.916,0.049
		c-38.762,0.003-77.523,0.003-116.284-0.001c-0.717-0.001-1.435-0.06-2.158-0.085c-0.06-0.79-0.168-1.581-0.171-2.371
		c-0.016-5.032-0.002-10.063-0.014-15.096c-0.001-0.774-0.078-1.549-0.135-2.589c-13.484,0-26.801,0-40.118,0
		c0-6.606,0-13.212,0-20.076c-1.224,0-2.166,0.006-3.108-0.001C192.628,517.006,186.957,516.958,181.283,516.913z M283.84,437.317
		c0-3.362-0.021-6.474,0.006-9.584c0.027-3.08-0.12-6.169,0.088-9.19c1.409-0.155,2.49-0.273,3.755-0.412c0-2.249,0-4.317,0-6.386
		c0-2.08-0.053-4.161,0.015-6.239c0.067-2.039-0.313-4.113,0.322-6.355c1.709,0,3.354,0,5.269,0c0-6.441,0-12.648,0-18.804
		c0.862-0.217,1.454-0.366,2.268-0.57c0-6.271,0-12.471,0-18.959c1.879,0,3.505,0,5.254,0c0-3.409-0.007-6.523,0.002-9.637
		c0.009-3.087,0.033-6.174,0.051-9.307c1.726-0.1,3.129-0.18,4.793-0.276c0-6.358,0-12.554,0-18.851
		c1.664-0.11,3.065-0.202,4.736-0.313c0-6.415,0-12.688,0-19.099c4.471-0.207,8.663-0.402,12.833-0.595c0-8.359,0-16.471,0-24.655
		c-23.173,0-46.17,0-69.509,0c0,3.185,0,6.249,0,9.565c-3.733,0-7.13,0-10.791,0c0,6.472,0,12.677,0,18.936
		c-1.994,0.088-3.712,0.164-5.555,0.245c0,2.319,0,4.394,0,6.468c0,2.08,0.052,4.162-0.015,6.239
		c-0.065,2.044,0.31,4.12-0.316,6.369c-2.101,0-4.147,0-6.485,0c0,6.43,0,12.625,0,19.109c-2.084,0-3.878,0-5.966,0
		c0,6.484,0,12.677,0,19.161c-2.174,0-4.053,0-6.243,0c0,6.48,0,12.667,0,18.93c-2.185,0.115-4.056,0.214-6.169,0.326
		c0,6.378,0,12.503,0,18.957c-2.118,0-3.983,0-6.028,0c-0.055,6.527,0.019,12.729-0.045,18.974c-1.76,0.101-3.17,0.182-4.859,0.279
		c0,6.352,0,12.556,0,19.057c-2.473,0-4.66,0-7.097,0c0,6.501,0,12.701,0,19.113c-1.598,0-2.943-0.014-4.288,0.004
		c-1.327,0.017-2.653,0.065-4.015,0.101c0,11.735,0,23.215,0,34.668c2.968,0.505,64.772,0.372,66.534-0.147
		c0.14-6.162-0.104-12.368,0.14-18.8c6.451,0,12.575,0,18.99,0c0-6.432,0-12.62,0-19.112c2.803,0,5.316,0,8.126,0
		c0-6.495,0-12.686,0-18.896C281.125,437.519,282.305,437.432,283.84,437.317z M379.525,364.111c0-2.475,0-4.548,0-6.621
		c0-2.08,0.009-4.16-0.002-6.24c-0.011-2.041-0.042-4.083-0.065-6.339c-2.08,0-3.811,0-5.808,0c0-6.428,0-12.626,0-19.14
		c-2.376,0-4.479,0-6.834,0c0-6.523,0-12.728,0-18.964c-1.587-0.091-2.914-0.167-4.498-0.257c0-6.375,0-12.574,0-19.069
		c-3.257,0-6.25,0-9.489,0c0-3.311,0-6.322,0-9.367c-5.574,0-10.888,0-16.464,0c0,3.157,0,6.162,0,9.509c-2.358,0-4.459,0-6.63,0
		c-0.236,6.536-0.461,12.726-0.693,19.158c-3.819,0-7.311,0-11.118,0c0,6.446,0,12.64,0,19.124c-1.945,0-3.574,0-5.496,0
		c0,6.485,0,12.677,0,18.939c-1.366,0.132-2.439,0.235-3.586,0.346c0,11.637,0,23.059,0,34.535c0.557,0.225,1.046,0.422,1.752,0.708
		c0,6.104,0,12.228,0,18.548c1.944,0.086,3.662,0.162,5.675,0.251c0,6.363,0,12.555,0,18.774c1.394,0.146,2.483,0.262,3.844,0.404
		c0,6.302,0,12.501,0,18.747c1.521,0.127,2.766,0.231,4.272,0.357c0,6.334,0,12.529,0,18.993c2.789,0,5.309,0,8.088,0
		c0,2.328,0,4.388,0,6.446c0,2.16-0.023,4.32,0.006,6.479c0.028,2.039-0.137,4.095,0.123,6.202c3.335,0,6.372-0.014,9.409,0.004
		c3.083,0.018,6.172-0.078,9.507,0.073c0,6.518,0,12.727,0,18.938c22.313,0,44.353,0,66.365,0c0.54-3.032,0.393-33.08-0.226-35.003
		c-2.518,0-5.122,0-7.995,0c0-6.448,0-12.646,0-19.147c-2.456,0-4.644,0-7.091,0c0-6.503,0-12.699,0-19.197
		c-1.731,0-3.193,0-4.786,0c0-3.422,0.004-6.535-0.001-9.648c-0.004-3.084-0.017-6.167-0.027-9.524c-2.223,0-4.09,0-6.065,0
		c-0.178-6.468,0.083-12.667-0.161-19.043c-2.133,0-3.949,0-6.036,0c-0.038-6.379-0.075-12.563-0.114-18.977
		C383.314,364.111,381.583,364.111,379.525,364.111z M161.034,496.78c0-13.442,0-26.579,0-39.691
		c-3.291-0.473-17.965-0.337-19.824,0.211c-0.011,13.088-0.005,26.229-0.005,39.48C148.001,496.78,154.438,496.78,161.034,496.78z
		 M462.479,336.008c0-13.339,0-26.533,0-39.95c-6.666,0.073-13.156-0.131-19.604,0.134c-0.485,4.192-0.296,37.958,0.219,39.816
		C449.488,336.008,455.914,336.008,462.479,336.008z M442.445,497.324c-2.321-0.513-17.799-0.463-19.624,0.033
		c-0.478,3.277-0.312,17.867,0.209,19.457c6.45,0,12.887,0,19.415,0C442.445,510.188,442.445,503.742,442.445,497.324z"/>
	<path fill-rule="evenodd" clip-rule="evenodd" fill="none" d="M1264.645,402.2c-6.705,0-13.41,0-20.383,0c0,2.613,0,4.979,0,7.097
		c-0.329,0.3-0.388,0.354-0.448,0.406c-0.06,0.052-0.116,0.113-0.186,0.145c-0.071,0.032-0.155,0.033-0.234,0.048
		c-0.079,0.014-0.157,0.029-0.236,0.038c-0.08,0.008-0.16,0.009-0.24,0.012s-0.159,0.007-0.239,0.009
		c-0.16,0.002-0.32,0.003-0.48,0.005c-0.08,0.001-0.16,0-0.239,0.001c-0.08,0-0.16,0-0.24,0s-0.16,0-0.24,0
		c-252.102,0-504.204,0.001-756.306,0.001c-0.08,0-0.16,0-0.24,0c-0.16,0.001-0.319,0.002-0.479,0.003
		c-0.08,0.001-0.16,0.001-0.24,0.004c-0.079,0.002-0.159,0.005-0.239,0.009s-0.16,0.005-0.239,0.015s-0.157,0.028-0.235,0.046
		s-0.161,0.025-0.23,0.061c-0.069,0.034-0.125,0.096-0.442,0.354c0,15.186,0,30.584,0,46.253c-6.939,0.062-13.626,0.12-20.313,0.18
		l0.063,0.063c0.048-1.115,0.138-2.23,0.138-3.346c0.008-37.995,0.007-75.99,0.007-113.986c0-1.022,0-2.043,0-3.217
		c6.731,0,13.181,0,19.983,0c0.02,2.76,0.048,5.522,0.058,8.285c0.01,2.799,0.002,5.599,0.002,8.399c0,2.879,0,5.759,0,8.639
		c0,2.8,0,5.6,0,8.399c0,2.779,0,5.557,0,8.603c253.87,0,507.471,0,761.34,0c0,2.626,0,4.989,0,7.695
		c3.661,0.007,7.064,0.025,10.468,0.015c3.358-0.01,6.717-0.048,10.075-0.074C1264.645,391.641,1264.645,396.92,1264.645,402.2z"/>
	<path fill-rule="evenodd" clip-rule="evenodd" fill="none" d="M-651.52,387.32c5.997-0.051,11.994-0.103,17.991-0.151
		c0.937-0.007,1.873-0.001,3.077-0.001c0-2.669,0-5.029,0-7.691c250.593,0,500.915,0,751.584,0c0.007-7.39,0.017-14.475,0.02-21.561
		c0.004-7.101,0.001-14.202,0.001-21.635c6.682-0.082,13.114-0.031,19.488-0.028c0.586,1.906,0.713,117.639,0.163,120.382
		c-6.409,0-12.847,0-19.623,0c-0.06-5.101-0.019-10.108-0.026-15.116c-0.007-5.119-0.001-10.238-0.001-15.358
		c0-5.024,0-10.049,0-14.789c-0.289-0.34-0.331-0.411-0.393-0.454c-0.063-0.046-0.145-0.066-0.22-0.093
		c-0.074-0.027-0.15-0.06-0.227-0.069c-0.159-0.02-0.318-0.028-0.478-0.038c-0.08-0.005-0.16-0.005-0.24-0.006
		c-0.16-0.002-0.32-0.004-0.48-0.004c-0.16-0.001-0.32-0.001-0.48-0.002c-249.096,0-498.191-0.001-747.286-0.002
		c-0.08,0-0.16-0.002-0.24-0.003c-0.08-0.001-0.16-0.003-0.24-0.005c-0.08-0.003-0.16-0.005-0.24-0.011s-0.159-0.016-0.238-0.027
		c-0.079-0.011-0.162-0.016-0.236-0.042c-0.073-0.025-0.137-0.074-0.479-0.271c0-2.182,0-4.536,0-7.165
		c-1.086-0.075-1.922-0.182-2.757-0.184c-5.2-0.016-10.399,0.007-15.599-0.022c-0.947-0.005-1.893-0.19-2.84-0.292
		C-651.52,397.561-651.52,392.44-651.52,387.32z"/>
	<path fill-rule="evenodd" clip-rule="evenodd" fill="none" d="M241.885,235.715c-0.053-2.695-0.14-5.389-0.152-8.084
		c-0.018-4.05,0.017-8.101,0.029-12.151c40.16,0,80.32,0,120.48,0c0.002,6.708,0.004,13.416,0.006,20.124l0.064-0.07
		c-0.875,0.042-1.75,0.122-2.625,0.122c-39.289,0.005-78.579,0.004-117.87,0.001C241.816,235.655,241.885,235.715,241.885,235.715z"
		/>
	<path fill-rule="evenodd" clip-rule="evenodd" fill="none" d="M283.84,437.317c-1.536,0.114-2.715,0.201-4.197,0.312
		c0,6.211,0,12.401,0,18.896c-2.81,0-5.324,0-8.126,0c0,6.492,0,12.681,0,19.112c-6.416,0-12.54,0-18.99,0
		c-0.244,6.432,0,12.638-0.14,18.8c-1.761,0.52-63.566,0.652-66.534,0.147c0-11.453,0-22.933,0-34.668
		c1.361-0.035,2.688-0.084,4.015-0.101c1.345-0.018,2.69-0.004,4.288-0.004c0-6.412,0-12.612,0-19.113c2.437,0,4.624,0,7.097,0
		c0-6.501,0-12.705,0-19.057c1.688-0.098,3.099-0.179,4.859-0.279c0.064-6.245-0.01-12.446,0.045-18.974c2.045,0,3.91,0,6.028,0
		c0-6.454,0-12.578,0-18.957c2.113-0.112,3.984-0.21,6.169-0.326c0-6.263,0-12.45,0-18.93c2.19,0,4.068,0,6.243,0
		c0-6.483,0-12.676,0-19.161c2.088,0,3.882,0,5.966,0c0-6.484,0-12.68,0-19.109c2.338,0,4.384,0,6.485,0
		c0.626-2.249,0.251-4.325,0.316-6.369c0.067-2.077,0.015-4.159,0.015-6.239c0-2.074,0-4.148,0-6.468
		c1.842-0.081,3.561-0.157,5.555-0.245c0-6.259,0-12.464,0-18.936c3.661,0,7.058,0,10.791,0c0-3.316,0-6.38,0-9.565
		c23.338,0,46.336,0,69.509,0c0,8.184,0,16.296,0,24.655c-4.17,0.193-8.362,0.388-12.833,0.595c0,6.411,0,12.685,0,19.099
		c-1.671,0.11-3.072,0.203-4.736,0.313c0,6.297,0,12.492,0,18.851c-1.664,0.096-3.067,0.176-4.793,0.276
		c-0.018,3.133-0.042,6.22-0.051,9.307c-0.009,3.114-0.002,6.228-0.002,9.637c-1.749,0-3.375,0-5.254,0c0,6.488,0,12.688,0,18.959
		c-0.814,0.204-1.406,0.353-2.268,0.57c0,6.156,0,12.363,0,18.804c-1.914,0-3.56,0-5.269,0c-0.636,2.242-0.255,4.316-0.322,6.355
		c-0.068,2.078-0.015,4.159-0.015,6.239c0,2.068,0,4.137,0,6.386c-1.265,0.139-2.346,0.257-3.755,0.412
		c-0.208,3.021-0.062,6.11-0.088,9.19C283.819,430.844,283.84,433.955,283.84,437.317z M271.586,448.716c0-2.332,0-4.386,0-6.438
		c0-2.16-0.008-4.318,0.002-6.479c0.01-2.043,0.037-4.086,0.057-6.131c1.581-0.103,2.822-0.184,4.297-0.279
		c0-6.429,0-12.629,0-18.882c1.338-0.096,2.428-0.174,3.769-0.27c0-3.214-0.008-6.312,0.002-9.41
		c0.01-3.161,0.037-6.321,0.058-9.741c2.065,0,3.777,0,5.664,0c0-6.406,0-12.542,0-18.727c0.743-0.208,1.325-0.371,2-0.56
		c0.196-6.271-0.119-12.469,0.192-18.886c1.851,0,3.422,0,5.323,0c0-6.43,0-12.621,0-18.886c1.717-0.136,3.109-0.246,4.65-0.368
		c0.22-6.377-0.095-12.573,0.187-18.817c1.637-0.084,2.968-0.153,4.575-0.236c0-6.354,0-12.55,0-18.972
		c4.468-0.198,8.666-0.384,13.007-0.576c0-3.051,0-5.961,0-8.844c-3.319-0.523-51.875-0.348-53.518,0.177
		c-0.347,2.973,0.173,6.014-0.348,9.245c-3.587,0-6.987,0-10.67,0c0,6.448,0,12.634,0,18.896c-1.996,0.111-3.704,0.207-5.645,0.315
		c0,6.378,0,12.5,0,18.966c-2.359,0-4.465,0-6.732,0c0,3.461,0.007,6.573-0.002,9.686c-0.01,3.083-0.037,6.166-0.059,9.474
		c-2.072,0-3.803,0-5.81,0c0,6.424,0,12.618,0,19.069c-2.16,0-4.042,0-6.208,0c0,2.313,0,4.369,0,6.425
		c0,2.159,0.008,4.318-0.002,6.478c-0.009,2.042-0.037,4.084-0.057,6.228c-1.309,0-2.265-0.012-3.221,0.003
		c-0.924,0.016-1.848,0.06-3.014,0.1c0,6.481,0,12.678,0,19.137c-2.126,0-4.003,0-6.134,0c0,6.459,0,12.655,0,18.985
		c-1.723,0.081-3.19,0.15-4.917,0.232c0,6.457,0,12.645,0,19.096c-2.397,0-4.517,0-6.782,0c-0.235,6.451,0.118,12.656-0.222,19.093
		c-2.844,0-5.446,0-8.183,0c0,6.456,0,12.648,0,18.816c2.658,0.561,48.844,0.443,50.721-0.157c0-2.017,0-4.09,0-6.163
		c0-2.079-0.033-4.159,0.01-6.237c0.041-2.037-0.196-4.099,0.196-6.304c6.288,0,12.343,0,18.682,0c0-6.392,0-12.585,0-19.058
		C266.251,448.716,268.768,448.716,271.586,448.716z"/>
	<path fill-rule="evenodd" clip-rule="evenodd" fill="none" d="M379.525,364.111c2.058,0,3.789,0,5.854,0
		c0.039,6.414,0.076,12.598,0.114,18.977c2.087,0,3.903,0,6.036,0c0.244,6.376-0.017,12.575,0.161,19.043c1.976,0,3.843,0,6.065,0
		c0.011,3.357,0.023,6.44,0.027,9.524c0.005,3.113,0.001,6.227,0.001,9.648c1.593,0,3.055,0,4.786,0c0,6.498,0,12.694,0,19.197
		c2.447,0,4.635,0,7.091,0c0,6.501,0,12.699,0,19.147c2.873,0,5.478,0,7.995,0c0.618,1.923,0.766,31.971,0.226,35.003
		c-22.013,0-44.053,0-66.365,0c0-6.211,0-12.42,0-18.938c-3.335-0.151-6.424-0.056-9.507-0.073
		c-3.037-0.018-6.074-0.004-9.409-0.004c-0.26-2.107-0.095-4.163-0.123-6.202c-0.029-2.159-0.006-4.319-0.006-6.479
		c0-2.059,0-4.118,0-6.446c-2.779,0-5.299,0-8.088,0c0-6.464,0-12.659,0-18.993c-1.507-0.126-2.751-0.23-4.272-0.357
		c0-6.246,0-12.445,0-18.747c-1.36-0.143-2.45-0.258-3.844-0.404c0-6.22,0-12.411,0-18.774c-2.013-0.089-3.73-0.165-5.675-0.251
		c0-6.32,0-12.444,0-18.548c-0.706-0.285-1.195-0.483-1.752-0.708c0-11.477,0-22.898,0-34.535c1.146-0.11,2.22-0.214,3.586-0.346
		c0-6.262,0-12.454,0-18.939c1.922,0,3.551,0,5.496,0c0-6.483,0-12.677,0-19.124c3.808,0,7.299,0,11.118,0
		c0.232-6.433,0.457-12.622,0.693-19.158c2.171,0,4.271,0,6.63,0c0-3.347,0-6.352,0-9.509c5.576,0,10.89,0,16.464,0
		c0,3.044,0,6.056,0,9.367c3.239,0,6.232,0,9.489,0c0,6.496,0,12.695,0,19.069c1.584,0.09,2.911,0.166,4.498,0.257
		c0,6.236,0,12.44,0,18.964c2.354,0,4.458,0,6.834,0c0,6.514,0,12.712,0,19.14c1.997,0,3.728,0,5.808,0
		c0.023,2.256,0.055,4.298,0.065,6.339c0.011,2.08,0.002,4.16,0.002,6.24C379.525,359.563,379.525,361.637,379.525,364.111z
		 M389.837,429.269c0-6.417,0-12.616,0-19.03c-2.12,0-3.935,0-6.021,0c-0.119-6.468,0.037-12.732-0.096-19.228
		c-2.228,0-4.109,0-6.127,0c-0.1-6.442,0.05-12.64-0.096-19.101c-2.137,0-3.928,0-5.84,0c-0.211-6.457,0.089-12.654-0.189-19.077
		c-2.06,0-3.785,0-5.805,0c0-6.441,0-12.631,0-18.935c-2.394-0.104-4.495-0.196-6.813-0.297c0-6.45,0-12.577,0-18.765
		c-1.554-0.126-2.873-0.234-4.334-0.352c-0.08-6.381,0.025-12.583-0.065-19.061c-3.347,0-6.349,0-9.6,0c0-3.122,0-5.958,0-8.793
		c-0.207,0.003-0.415,0.006-0.621,0.01c0,2.914,0,5.829,0,9.011c-2.468,0-4.587,0-6.805,0c-0.223,6.389-0.436,12.501-0.652,18.736
		c-3.778,0.105-7.259,0.202-11.021,0.307c0,6.494,0,12.691,0,19.071c-1.091,0-1.884-0.016-2.677,0.005
		c-0.782,0.021-1.564,0.079-2.625,0.135c0,6.358,0,12.554,0,18.789c-1.366,0.141-2.452,0.253-3.658,0.378c0,6.335,0,12.539,0,18.71
		c0.595,0.22,1.102,0.407,1.735,0.641c0,3.162-0.023,6.274,0.007,9.385c0.029,3.078-0.131,6.167,0.117,9.499
		c2.023,0,3.734,0,5.577,0c0,2.348,0,4.42,0,6.493c0,2.08-0.056,4.162,0.016,6.239c0.069,2.04-0.324,4.116,0.27,6.146
		c1.201,0.104,2.282,0.199,3.634,0.316c0,6.35,0,12.541,0,18.822c1.515,0.107,2.751,0.194,4.117,0.292
		c0.248,6.384-0.14,12.582,0.232,18.998c2.698,0,5.151,0,7.937,0c0,6.433,0,12.623,0,19.09c6.453,0,12.574,0,18.975,0
		c0,6.476,0,12.671,0,18.947c17.042,0,33.797,0,50.689,0c0-6.341,0-12.532,0-19.055c-2.797,0-5.468,0-8.44,0
		c0-6.509,0-12.694,0-19.176c-2.419,0-4.534,0-6.876,0c0-2.365,0-4.429,0-6.492c0-2.08,0.057-4.162-0.017-6.239
		c-0.071-2.034,0.336-4.106-0.296-6.185C393.014,429.431,391.673,429.362,389.837,429.269z"/>
	<path fill-rule="evenodd" clip-rule="evenodd" fill="none" d="M241.852,557.179c0.717,0.031,1.434,0.09,2.151,0.091
		c38.761,0.004,77.522,0.004,116.284,0.001c0.639,0,1.277-0.031,1.918-0.047c0.001,0.001-0.07-0.064-0.07-0.064
		c0,6.62,0,13.24,0,19.824c-1.853,0.521-117.267,0.646-120.252,0.137c-0.048-0.409-0.146-0.865-0.147-1.321
		c-0.011-5.756-0.012-11.512,0-17.268c0.001-0.471,0.122-0.941,0.188-1.413L241.852,557.179z"/>
	<path fill-rule="evenodd" clip-rule="evenodd" fill="none" d="M201.444,255.781c0-6.596,0-13.191,0-20.069
		c13.692,0,27.064,0,40.438,0.001c0.002,0.001-0.067-0.059-0.065-0.057c-0.049,4.86-0.104,9.719-0.148,14.578
		c-0.016,1.74-0.002,3.48-0.002,5.351c-0.636,0.082-1.086,0.191-1.537,0.191c-12.68,0.006-25.359,0.002-38.039-0.004
		c-0.238,0-0.476-0.041-0.714-0.062L201.444,255.781z"/>
	<path fill-rule="evenodd" clip-rule="evenodd" fill="none" d="M362.248,235.604c0.875,0.036,1.749,0.103,2.624,0.103
		c11.567,0.007,23.136,0.005,34.704,0.005c0.856,0,1.713,0,2.735,0c0.055,1.018,0.129,1.792,0.131,2.566
		c0.011,4.946-0.003,9.893,0.015,14.839c0.003,0.87,0.116,1.739,0.179,2.608l0.065-0.072c-0.715,0.044-1.43,0.127-2.145,0.128
		c-11.965,0.008-23.93,0.008-35.895,0.001c-0.7,0-1.4-0.068-2.352-0.117c0-6.783,0-13.456,0.001-20.13
		C362.313,235.533,362.248,235.604,362.248,235.604z"/>
	<path fill-rule="evenodd" clip-rule="evenodd" fill="none" d="M241.923,557.118c-0.797,0.037-1.595,0.104-2.393,0.105
		c-11.756,0.007-23.512,0.005-35.269,0.005c-0.794,0-1.587,0-2.737,0c-0.017-6.81-0.034-13.489-0.05-20.169
		c0,0-0.067,0.069-0.067,0.069c13.317,0,26.634,0,40.118,0c0.057,1.04,0.134,1.814,0.135,2.589
		c0.011,5.032-0.002,10.063,0.014,15.096c0.002,0.79,0.111,1.581,0.174,2.368C241.852,557.179,241.923,557.118,241.923,557.118z"/>
	<path fill-rule="evenodd" clip-rule="evenodd" fill="none" d="M402.576,537.092c-0.042,5.66-0.086,11.32-0.127,16.98
		c-0.007,0.943-0.001,1.887-0.001,2.898c-0.479,0.109-0.772,0.234-1.065,0.234c-13.081-0.008-26.163-0.025-39.247-0.044
		c-0.001-0.002,0.07,0.063,0.069,0.063c-0.002-6.596-0.002-13.188-0.002-20.063c13.705,0,27.072,0,40.44,0L402.576,537.092z"/>
	<path fill-rule="evenodd" clip-rule="evenodd" fill="none" d="M161.034,496.78c-6.596,0-13.033,0-19.829,0
		c0-13.252-0.006-26.393,0.005-39.48c1.858-0.548,16.533-0.684,19.824-0.211C161.034,470.201,161.034,483.338,161.034,496.78z"/>
	<path fill-rule="evenodd" clip-rule="evenodd" fill="none" d="M161.035,296.083c0.057,0.633,0.163,1.266,0.164,1.899
		c0.01,11.912,0.009,23.823,0.002,35.735c0,0.701-0.076,1.402-0.126,2.265c-6.562,0-12.992,0-19.409,0
		c-0.561-1.783-0.709-36.799-0.149-39.842c6.502,0,13.041,0,19.58,0L161.035,296.083z"/>
	<path fill-rule="evenodd" clip-rule="evenodd" fill="none" d="M462.479,336.008c-6.564,0-12.99,0-19.385,0
		c-0.515-1.858-0.704-35.624-0.219-39.816c6.447-0.265,12.938-0.061,19.604-0.134C462.479,309.475,462.479,322.669,462.479,336.008z
		"/>
	<path fill-rule="evenodd" clip-rule="evenodd" fill="none" d="M462.512,456.885c0.047,0.714,0.136,1.429,0.136,2.144
		c0.009,11.744,0.009,23.489,0.001,35.234c0,0.779-0.076,1.558-0.124,2.485c-6.572,0-13.001,0-19.412,0
		c-0.546-1.772-0.765-35.106-0.276-39.459c1.686-0.57,13.513-0.775,19.739-0.341C462.574,456.947,462.512,456.885,462.512,456.885z"
		/>
	<path fill-rule="evenodd" clip-rule="evenodd" fill="none" d="M201.376,255.71c0,6.61,0,13.22,0,20.159
		c-6.791,0.019-13.458,0.037-20.124,0.055l0.069,0.068c0-6.591,0-13.182,0-20.11c6.846-0.033,13.485-0.066,20.123-0.099
		C201.444,255.781,201.376,255.71,201.376,255.71z"/>
	<path fill-rule="evenodd" clip-rule="evenodd" fill="none" d="M402.636,255.725c5.563,0.036,11.128,0.072,16.692,0.106
		c0.948,0.006,1.897,0,3.082,0c0.045,0.989,0.115,1.839,0.117,2.689c0.011,4.931-0.008,9.862,0.019,14.793
		c0.004,0.857,0.175,1.714,0.269,2.572l0.067-0.071c-6.687,0-13.374,0-20.198,0c-0.068-0.585-0.166-1.04-0.167-1.495
		c-0.011-5.75-0.013-11.499,0-17.248c0.001-0.472,0.117-0.943,0.182-1.417C402.701,255.653,402.636,255.725,402.636,255.725z"/>
	<path fill-rule="evenodd" clip-rule="evenodd" fill="none" d="M161.096,296.14c0.058-2.141,0.151-4.281,0.167-6.422
		c0.027-3.738,0.001-7.477,0.013-11.215c0.002-0.773,0.071-1.547,0.119-2.511c6.762,0,13.345,0,19.928,0l-0.069-0.068
		c0,6.597,0,13.195,0,20.03c-6.869,0.044-13.542,0.087-20.216,0.129C161.035,296.083,161.096,296.14,161.096,296.14z"/>
	<path fill-rule="evenodd" clip-rule="evenodd" fill="none" d="M181.286,516.91c5.671,0.048,11.342,0.096,17.014,0.142
		c0.942,0.007,1.884,0.001,3.108,0.001c0,6.864,0,13.47,0,20.076c0,0,0.067-0.069,0.067-0.069c-6.601,0-13.202,0-20.122,0
		c0-6.868,0-13.542,0-20.216L181.286,516.91z"/>
	<path fill-rule="evenodd" clip-rule="evenodd" fill="none" d="M181.354,516.844c-5.344,0.05-10.688,0.102-16.031,0.148
		c-1.256,0.011-2.512,0.001-3.907,0.001c0-6.716,0-13.152,0-19.586c1.75-0.549,17.404-0.627,19.868-0.063
		c0,6.496,0,13.032,0.001,19.567C181.286,516.91,181.354,516.844,181.354,516.844z"/>
	<path fill-rule="evenodd" clip-rule="evenodd" fill="none" d="M402.644,537.161c-0.023-6.467-0.048-12.934-0.061-19.4
		c0-0.14,0.125-0.279,0.26-0.563c6.377,0,12.819,0,19.261,0c0.552,1.747,0.627,17.441,0.056,19.892c-6.499,0-13.042,0-19.584,0.001
		C402.576,537.092,402.644,537.161,402.644,537.161z"/>
	<path fill-rule="evenodd" clip-rule="evenodd" fill="none" d="M422.814,275.886c6.396,0.05,12.792,0.1,19.188,0.156
		c0.065,0,0.131,0.081,0.196,0.125c0.462,1.793,0.561,16.945,0.1,19.681c-6.409,0-12.847,0-19.45,0
		c-0.081-0.461-0.228-0.908-0.229-1.355c-0.017-5.759-0.019-11.518-0.001-17.277c0.001-0.465,0.167-0.93,0.26-1.398
		C422.882,275.815,422.814,275.886,422.814,275.886z"/>
	<path fill-rule="evenodd" clip-rule="evenodd" fill="none" d="M442.445,497.324c0,6.418,0,12.864,0,19.49
		c-6.528,0-12.965,0-19.415,0c-0.521-1.59-0.687-16.18-0.209-19.457C424.646,496.861,440.124,496.812,442.445,497.324z"/>
	<path fill-rule="evenodd" clip-rule="evenodd" fill="none" d="M271.586,448.716c-2.818,0-5.335,0-8.131,0
		c0,6.473,0,12.666,0,19.058c-6.339,0-12.395,0-18.682,0c-0.392,2.205-0.155,4.267-0.196,6.304c-0.042,2.078-0.01,4.158-0.01,6.237
		c0,2.073,0,4.146,0,6.163c-1.877,0.601-48.063,0.718-50.721,0.157c0-6.168,0-12.36,0-18.816c2.737,0,5.339,0,8.183,0
		c0.339-6.437-0.013-12.642,0.222-19.093c2.265,0,4.384,0,6.782,0c0-6.451,0-12.639,0-19.096c1.727-0.082,3.194-0.151,4.917-0.232
		c0-6.33,0-12.526,0-18.985c2.131,0,4.008,0,6.134,0c0-6.459,0-12.656,0-19.137c1.166-0.04,2.09-0.084,3.014-0.1
		c0.956-0.016,1.913-0.003,3.221-0.003c0.021-2.143,0.048-4.185,0.057-6.228c0.01-2.159,0.002-4.319,0.002-6.478
		c0-2.056,0-4.112,0-6.425c2.166,0,4.048,0,6.208,0c0-6.451,0-12.645,0-19.069c2.007,0,3.738,0,5.81,0
		c0.021-3.308,0.049-6.391,0.059-9.474c0.01-3.113,0.002-6.225,0.002-9.686c2.267,0,4.373,0,6.732,0c0-6.465,0-12.588,0-18.966
		c1.941-0.108,3.649-0.204,5.645-0.315c0-6.262,0-12.448,0-18.896c3.683,0,7.083,0,10.67,0c0.521-3.231,0.001-6.272,0.348-9.245
		c1.643-0.525,50.198-0.7,53.518-0.177c0,2.883,0,5.793,0,8.844c-4.342,0.192-8.539,0.378-13.007,0.576c0,6.421,0,12.618,0,18.972
		c-1.607,0.083-2.938,0.152-4.575,0.236c-0.282,6.244,0.033,12.44-0.187,18.817c-1.541,0.122-2.934,0.232-4.65,0.368
		c0,6.266,0,12.456,0,18.886c-1.901,0-3.472,0-5.323,0c-0.311,6.417,0.004,12.615-0.192,18.886c-0.675,0.189-1.257,0.352-2,0.56
		c0,6.185,0,12.32,0,18.727c-1.886,0-3.598,0-5.664,0c-0.021,3.419-0.048,6.58-0.058,9.741c-0.01,3.099-0.002,6.196-0.002,9.41
		c-1.341,0.096-2.431,0.174-3.769,0.27c0,6.253,0,12.453,0,18.882c-1.476,0.096-2.716,0.177-4.297,0.279
		c-0.02,2.045-0.047,4.088-0.057,6.131c-0.01,2.16-0.002,4.318-0.002,6.479C271.586,444.33,271.586,446.384,271.586,448.716z"/>
	<path fill-rule="evenodd" clip-rule="evenodd" fill="none" d="M389.837,429.269c1.836,0.094,3.177,0.162,4.633,0.236
		c0.632,2.078,0.225,4.15,0.296,6.185c0.073,2.077,0.017,4.159,0.017,6.239c0,2.063,0,4.127,0,6.492c2.342,0,4.457,0,6.876,0
		c0,6.481,0,12.667,0,19.176c2.973,0,5.644,0,8.44,0c0,6.522,0,12.714,0,19.055c-16.893,0-33.647,0-50.689,0
		c0-6.276,0-12.472,0-18.947c-6.4,0-12.521,0-18.975,0c0-6.467,0-12.657,0-19.09c-2.785,0-5.238,0-7.937,0
		c-0.372-6.416,0.016-12.614-0.232-18.998c-1.366-0.098-2.603-0.185-4.117-0.292c0-6.281,0-12.473,0-18.822
		c-1.352-0.117-2.433-0.212-3.634-0.316c-0.594-2.03-0.2-4.106-0.27-6.146c-0.071-2.077-0.016-4.159-0.016-6.239
		c0-2.072,0-4.145,0-6.493c-1.843,0-3.554,0-5.577,0c-0.248-3.331-0.088-6.42-0.117-9.499c-0.03-3.111-0.007-6.223-0.007-9.385
		c-0.634-0.234-1.141-0.421-1.735-0.641c0-6.172,0-12.375,0-18.71c1.206-0.125,2.292-0.237,3.658-0.378c0-6.235,0-12.431,0-18.789
		c1.061-0.056,1.843-0.114,2.625-0.135c0.793-0.021,1.586-0.005,2.677-0.005c0-6.38,0-12.577,0-19.071
		c3.763-0.105,7.243-0.202,11.021-0.307c0.217-6.235,0.43-12.347,0.652-18.736c2.218,0,4.337,0,6.805,0c0-3.183,0-6.097,0-9.011
		c0.206-0.003,0.414-0.006,0.621-0.01c0,2.835,0,5.671,0,8.793c3.251,0,6.253,0,9.6,0c0.091,6.477-0.015,12.68,0.065,19.061
		c1.461,0.118,2.78,0.226,4.334,0.352c0,6.188,0,12.315,0,18.765c2.317,0.102,4.419,0.193,6.813,0.297c0,6.304,0,12.494,0,18.935
		c2.02,0,3.745,0,5.805,0c0.278,6.423-0.021,12.621,0.189,19.077c1.912,0,3.703,0,5.84,0c0.146,6.46-0.004,12.659,0.096,19.101
		c2.018,0,3.899,0,6.127,0c0.133,6.495-0.023,12.76,0.096,19.228c2.086,0,3.9,0,6.021,0
		C389.837,416.652,389.837,422.852,389.837,429.269z"/>
</g>
</svg>
